<svg xmlns="http://www.w3.org/2000/svg" viewBox="0 0 266.89 266.89"><defs><style>.cls-1{fill:#d95754;}</style></defs><title>Artboard 2</title><g id="Blue"><path class="cls-1" d="M266.89,221V45.87A45.93,45.93,0,0,0,221,0h-175A45.93,45.93,0,0,0,0,45.93V221a45.93,45.93,0,0,0,45.93,45.93h96.63V164.54H107.77V124.26h34.78V94.55c0-34.47,21.05-53.24,51.81-53.24a285.41,285.41,0,0,1,31.08,1.59v36H204.11c-16.72,0-20,7.95-20,19.61v25.72H224l-5.19,40.28H184.15V266.89H221A45.93,45.93,0,0,0,266.89,221Z"/></g></svg>