<svg id="Layer_1" data-name="Layer 1" xmlns="http://www.w3.org/2000/svg" viewBox="0 0 170.13 168.66"><defs><style>.cls-1{fill:#d95754;}.cls-2{fill:#fff;}</style></defs><title>spotify</title><circle class="cls-1" cx="83.46" cy="84.73" r="83.73"/><path class="cls-2" d="M117.08,124.56a5.5,5.5,0,0,1-2.83-.78c-33-19.84-72.06-8.37-72.45-8.25A5.5,5.5,0,0,1,38.59,105c1.79-.54,44.07-13.07,81.33,9.34a5.5,5.5,0,0,1-2.84,10.21Z"/><path class="cls-2" d="M126.56,102a6.55,6.55,0,0,1-3.24-.86c-41.42-23.82-83.15-10-83.57-9.81A6.5,6.5,0,0,1,35.54,79c1.93-.66,47.78-15.89,94.26,10.84A6.5,6.5,0,0,1,126.56,102Z"/><path class="cls-2" d="M136.84,76.36a8,8,0,0,1-3.71-.92C85.38,50.36,36.34,65.38,35.85,65.53A8,8,0,1,1,31,50.27c2.26-.71,56-17.14,109.54,11a8,8,0,0,1-3.73,15.09Z"/></svg>